<svg id="Camada_1" data-name="Camada 1" xmlns="http://www.w3.org/2000/svg" viewBox="0 0 272.62 39.78"><defs><style>.cls-1{fill:#3bd46e;}.cls-2{fill:none;stroke:#3bd46e;stroke-miterlimit:10;stroke-width:5px;}</style></defs><path d="M688.85,255a10.46,10.46,0,0,1,4.07-4.19,11.76,11.76,0,0,1,6-1.49,11.44,11.44,0,0,1,7.14,2.16,10.47,10.47,0,0,1,3.79,6.06h-6.32a4.67,4.67,0,0,0-1.7-2.37,5,5,0,0,0-3-.86,4.86,4.86,0,0,0-4,1.82,8.07,8.07,0,0,0-1.46,5.18,8,8,0,0,0,1.46,5.13,4.83,4.83,0,0,0,4,1.82,4.46,4.46,0,0,0,4.66-3.18h6.32a10.69,10.69,0,0,1-3.81,6,11.25,11.25,0,0,1-7.12,2.22,11.75,11.75,0,0,1-6-1.48,10.48,10.48,0,0,1-4.07-4.2,14.26,14.26,0,0,1,0-12.61Z" transform="translate(-687.38 -241.9)"/><path d="M718.39,271.81a10.81,10.81,0,0,1-4.21-4.22,12.59,12.59,0,0,1-1.53-6.28,12.44,12.44,0,0,1,1.57-6.29,10.94,10.94,0,0,1,4.3-4.21,13.13,13.13,0,0,1,12.15,0A10.94,10.94,0,0,1,735,255a12.34,12.34,0,0,1,1.57,6.29,12.13,12.13,0,0,1-1.61,6.28,11.26,11.26,0,0,1-4.36,4.22,12.7,12.7,0,0,1-6.14,1.48A12.26,12.26,0,0,1,718.39,271.81Zm9-4.4a5.69,5.69,0,0,0,2.25-2.33,7.81,7.81,0,0,0,.83-3.77,7,7,0,0,0-1.73-5.09,5.72,5.72,0,0,0-4.26-1.79,5.58,5.58,0,0,0-4.21,1.79,7.08,7.08,0,0,0-1.7,5.09,7.19,7.19,0,0,0,1.66,5.09,5.43,5.43,0,0,0,4.17,1.78A6.14,6.14,0,0,0,727.42,267.41Z" transform="translate(-687.38 -241.9)"/><path d="M760.43,252A10.07,10.07,0,0,1,763,259.3v13.62h-5.86V260.09a6,6,0,0,0-1.39-4.25,4.9,4.9,0,0,0-3.77-1.49,5,5,0,0,0-3.83,1.49,5.94,5.94,0,0,0-1.41,4.25v12.83h-5.86V249.7h5.86v2.89a8.1,8.1,0,0,1,3-2.37,9.29,9.29,0,0,1,4-.86A9,9,0,0,1,760.43,252Z" transform="translate(-687.38 -241.9)"/><path d="M772.33,272.27a9,9,0,0,1-3.58-2.79,7,7,0,0,1-1.45-3.9h5.91a3.18,3.18,0,0,0,1.32,2.22,4.56,4.56,0,0,0,2.87.88A4.44,4.44,0,0,0,780,268a2,2,0,0,0,.94-1.72,1.79,1.79,0,0,0-1.15-1.69,21.63,21.63,0,0,0-3.67-1.24,30.65,30.65,0,0,1-4.25-1.3A7.23,7.23,0,0,1,769,260a5.5,5.5,0,0,1-1.2-3.73,6,6,0,0,1,1.12-3.52,7.46,7.46,0,0,1,3.18-2.52,12,12,0,0,1,4.88-.92,9.92,9.92,0,0,1,6.62,2.08,7.67,7.67,0,0,1,2.73,5.59h-5.62a3.05,3.05,0,0,0-1.15-2.2,5.18,5.18,0,0,0-5.2-.23,1.88,1.88,0,0,0-.86,1.64,1.92,1.92,0,0,0,1.18,1.78,18.51,18.51,0,0,0,3.64,1.23,30.51,30.51,0,0,1,4.15,1.3,7.36,7.36,0,0,1,2.83,2.08,5.67,5.67,0,0,1,1.24,3.7,6.15,6.15,0,0,1-1.11,3.61,7.35,7.35,0,0,1-3.19,2.49,12,12,0,0,1-4.84.9A12.3,12.3,0,0,1,772.33,272.27Z" transform="translate(-687.38 -241.9)"/><path d="M813.31,249.7v23.22H807.4V270a7.61,7.61,0,0,1-2.95,2.37,9.24,9.24,0,0,1-4,.86,9.82,9.82,0,0,1-4.82-1.15,8.12,8.12,0,0,1-3.29-3.4,11.14,11.14,0,0,1-1.19-5.34V249.7h5.86v12.78a6,6,0,0,0,1.39,4.25,5.57,5.57,0,0,0,7.58,0,6,6,0,0,0,1.38-4.25V249.7Z" transform="translate(-687.38 -241.9)"/><path d="M825,241.9v31H819.1v-31Z" transform="translate(-687.38 -241.9)"/><path d="M837.58,254.52v11.23a2.26,2.26,0,0,0,.56,1.7,2.8,2.8,0,0,0,1.91.52h2.72v4.95h-3.68q-7.43,0-7.42-7.21V254.52H828.9V249.7h2.77V244h5.91v5.74h5.19v4.82Z" transform="translate(-687.38 -241.9)"/><path d="M846.9,255a10.34,10.34,0,0,1,3.81-4.19,10.17,10.17,0,0,1,5.39-1.47,9.46,9.46,0,0,1,4.55,1.05,9.22,9.22,0,0,1,3.12,2.64V249.7h5.91v23.22h-5.91v-3.4a8.79,8.79,0,0,1-3.12,2.7,9.49,9.49,0,0,1-4.59,1.07,9.85,9.85,0,0,1-5.35-1.51,10.58,10.58,0,0,1-3.81-4.25,13.61,13.61,0,0,1-1.4-6.31A13.4,13.4,0,0,1,846.9,255Zm16,2.66a6,6,0,0,0-2.26-2.35,6.09,6.09,0,0,0-3.06-.81,5.86,5.86,0,0,0-5.26,3.12,7.31,7.31,0,0,0-.86,3.62,7.57,7.57,0,0,0,.86,3.67,6.2,6.2,0,0,0,2.26,2.41,5.77,5.77,0,0,0,3,.84,6,6,0,0,0,3.06-.82,5.82,5.82,0,0,0,2.26-2.35,8.42,8.42,0,0,0,0-7.33Z" transform="translate(-687.38 -241.9)"/><path class="cls-1" d="M885.35,255a10.46,10.46,0,0,1,4.07-4.19,11.76,11.76,0,0,1,6-1.49,11.42,11.42,0,0,1,7.14,2.16,10.47,10.47,0,0,1,3.79,6.06H900a4.62,4.62,0,0,0-1.7-2.37,5,5,0,0,0-3-.86,4.86,4.86,0,0,0-4,1.82,8.13,8.13,0,0,0-1.46,5.18,8,8,0,0,0,1.46,5.13,4.83,4.83,0,0,0,4,1.82,4.46,4.46,0,0,0,4.66-3.18h6.32a10.69,10.69,0,0,1-3.81,6,11.23,11.23,0,0,1-7.12,2.22,11.75,11.75,0,0,1-6-1.48,10.48,10.48,0,0,1-4.07-4.2,14.26,14.26,0,0,1,0-12.61Z" transform="translate(-687.38 -241.9)"/><path class="cls-1" d="M932,263.07H915a5.8,5.8,0,0,0,1.76,3.94,5.42,5.42,0,0,0,3.81,1.42,4.79,4.79,0,0,0,4.66-2.81h6.33a10.58,10.58,0,0,1-3.86,5.51,11.25,11.25,0,0,1-7,2.16,12.11,12.11,0,0,1-6-1.48,10.47,10.47,0,0,1-4.15-4.22,12.9,12.9,0,0,1-1.49-6.28,13.15,13.15,0,0,1,1.47-6.33,10.16,10.16,0,0,1,4.1-4.19,13.16,13.16,0,0,1,12,0,10,10,0,0,1,4.07,4,12.28,12.28,0,0,1,1.44,6A13,13,0,0,1,932,263.07Zm-5.91-3.94a4.64,4.64,0,0,0-1.63-3.63,5.83,5.83,0,0,0-3.9-1.36,5.31,5.31,0,0,0-3.66,1.32,5.8,5.8,0,0,0-1.83,3.67Z" transform="translate(-687.38 -241.9)"/><path class="cls-1" d="M948,254a7,7,0,1,1-7,7,7,7,0,0,1,7-7m0-5a12,12,0,1,0,12,12,12,12,0,0,0-12-12Z" transform="translate(-687.38 -241.9)"/><line class="cls-2" x1="253.62" y1="27.1" x2="243.62" y2="38.1"/></svg>