<svg xmlns="http://www.w3.org/2000/svg" viewBox="0 0 350.81 367.93"><defs><style>.cls-1{fill:#73ce6e;}.cls-2{fill:#74ce6f;}.cls-3{fill:#ffffe9;}.cls-4{fill:#75cf70;}.cls-5{fill:#76cf71;}.cls-6{fill:#76cf72;}.cls-7{fill:#77cf72;}.cls-8{fill:#78d073;}.cls-9{fill:#79d074;}.cls-10{fill:#79d075;}.cls-11{fill:#7ad075;}.cls-12{fill:#7bd076;}.cls-13{fill:#7bd177;}.cls-14{fill:#7cd177;}.cls-15{fill:#7dd178;}.cls-16{fill:#7dd179;}.cls-17{fill:#7ed17a;}.cls-18{fill:#7fd27a;}.cls-19{fill:#7fd27b;}.cls-20{fill:#80d27c;}.cls-21{fill:#81d27c;}.cls-22{fill:#82d37d;}.cls-23{fill:#82d37e;}.cls-24{fill:#83d37f;}.cls-25{fill:#84d37f;}.cls-26{fill:#84d380;}.cls-27{fill:#85d481;}.cls-28{fill:#86d482;}.cls-29{fill:#87d483;}.cls-30{fill:#88d584;}.cls-31{fill:#89d585;}.cls-32{fill:#8ad586;}.cls-33{fill:#8bd587;}.cls-34{fill:#8bd687;}.cls-35{fill:#8cd688;}.cls-36{fill:#8dd689;}.cls-37{fill:#8ed68a;}.cls-38{fill:#8fd78b;}.cls-39{fill:#8fd78c;}.cls-40{fill:#90d78c;}.cls-41{fill:#91d78d;}.cls-42{fill:#91d88e;}.cls-43{fill:#92d88f;}.cls-44{fill:#93d88f;}.cls-45{fill:#94d890;}.cls-46{fill:#94d891;}.cls-47{fill:#95d991;}.cls-48{fill:#96d992;}.cls-49{fill:#96d993;}.cls-50{fill:#97d994;}.cls-51{fill:#98da94;}.cls-52{fill:#98da95;}.cls-53{fill:#99da96;}.cls-54{fill:#9ada96;}.cls-55{fill:#9bda97;}.cls-56{fill:#9bdb98;}.cls-57{fill:#9cdb99;}.cls-58{fill:#9ddb99;}.cls-59{fill:#9ddb9a;}.cls-60{fill:#9edc9b;}.cls-61{fill:#9fdc9c;}.cls-62{fill:#a0dc9d;}.cls-63{fill:#a1dc9e;}.cls-64{fill:#a1dd9e;}.cls-65{fill:#a2dd9f;}.cls-66{fill:#a3dda0;}.cls-67{fill:#a4dda1;}.cls-68{fill:#a5dea2;}.cls-69{fill:#a6dea3;}.cls-70{fill:#a7dea4;}.cls-71{fill:#a8dfa5;}.cls-72{fill:#a8dfa6;}.cls-73{fill:#a9dfa6;}.cls-74{fill:#aadfa7;}.cls-75{fill:#aadfa8;}.cls-76{fill:#abe0a9;}.cls-77{fill:#ace0a9;}.cls-78{fill:#ade0aa;}.cls-79{fill:#ade0ab;}.cls-80{fill:#aee1ab;}.cls-81{fill:#afe1ac;}.cls-82{fill:#afe1ad;}.cls-83{fill:#b0e1ae;}.cls-84{fill:#b1e1ae;}.cls-85{fill:#b1e2af;}.cls-86{fill:#b2e2b0;}.cls-87{fill:#b3e2b0;}.cls-88{fill:#b3e2b1;}.cls-89{fill:#b4e2b2;}.cls-90{fill:#b5e3b3;}.cls-91{fill:#b6e3b3;}.cls-92{fill:#b6e3b4;}.cls-93{fill:#b7e3b5;}.cls-94{fill:#b8e4b6;}.cls-95{fill:#b9e4b7;}.cls-96{fill:#f28181;}.cls-97{fill:#e03434;}</style></defs><title>cepLogo</title><g id="Camada_2" data-name="Camada 2"><g id="Camada_1-2" data-name="Camada 1"><polygon class="cls-1" points="162.81 367.93 0 273.93 188 165.39 350.81 259.39 162.81 367.93"/><polygon class="cls-2" points="162.81 367.76 0 273.76 188 165.22 350.81 259.22 162.81 367.76"/><polygon class="cls-3" points="111.75 230.81 111.63 230.75 113.5 229.67 113.61 229.74 111.75 230.81"/><polygon class="cls-3" points="233.65 233.8 232.04 232.87 232.16 232.79 233.78 233.72 233.65 233.8"/><polygon class="cls-3" points="177.94 293.61 177.81 293.53 179.24 292.7 179.37 292.78 177.94 293.61"/><polygon class="cls-3" points="185.36 326.03 184.87 325.74 185.03 325.65 185.53 325.93 185.36 326.03"/><polygon class="cls-2" points="162.81 367.59 0 273.59 188 165.05 350.81 259.05 162.81 367.59"/><polygon class="cls-3" points="110.87 231.21 110.65 231.08 114.37 228.93 114.59 229.06 110.87 231.21"/><polygon class="cls-3" points="234.39 234.13 231.17 232.27 231.42 232.12 234.65 233.98 234.39 234.13"/><polygon class="cls-3" points="177.28 293.89 177.02 293.74 179.9 292.08 180.15 292.23 177.28 293.89"/><polygon class="cls-3" points="185.53 326.05 184.53 325.48 184.87 325.29 185.86 325.86 185.53 326.05"/><polygon class="cls-4" points="162.81 367.43 0 273.43 188 164.88 350.81 258.88 162.81 367.43"/><polygon class="cls-3" points="110 231.61 109.66 231.42 115.24 228.2 115.58 228.39 110 231.61"/><polygon class="cls-3" points="235.13 234.47 230.29 231.67 230.68 231.45 235.52 234.24 235.13 234.47"/><polygon class="cls-3" points="176.63 294.17 176.24 293.95 180.55 291.46 180.94 291.69 176.63 294.17"/><polygon class="cls-3" points="185.69 326.08 184.2 325.22 184.71 324.93 186.2 325.79 185.69 326.08"/><polygon class="cls-5" points="162.81 367.26 0 273.26 188 164.72 350.81 258.72 162.81 367.26"/><polygon class="cls-3" points="109.12 232.01 108.67 231.76 116.12 227.46 116.56 227.72 109.12 232.01"/><polygon class="cls-3" points="235.87 234.8 229.43 231.08 229.94 230.78 236.39 234.5 235.87 234.8"/><polygon class="cls-3" points="175.97 294.46 175.46 294.16 181.2 290.84 181.72 291.14 175.97 294.46"/><polygon class="cls-3" points="185.86 326.1 183.87 324.95 184.54 324.56 186.53 325.71 185.86 326.1"/><polygon class="cls-6" points="162.81 367.09 0 273.09 188 164.55 350.81 258.55 162.81 367.09"/><polygon class="cls-3" points="108.25 232.42 107.69 232.09 116.99 226.72 117.55 227.04 108.25 232.42"/><polygon class="cls-3" points="236.62 235.13 228.56 230.48 229.2 230.11 237.26 234.76 236.62 235.13"/><polygon class="cls-3" points="175.32 294.74 174.68 294.37 181.86 290.22 182.5 290.6 175.32 294.74"/><polygon class="cls-3" points="186.02 326.13 183.53 324.69 184.38 324.2 186.86 325.64 186.02 326.13"/><polygon class="cls-7" points="162.81 366.92 0 272.92 188 164.38 350.81 258.38 162.81 366.92"/><polygon class="cls-3" points="107.37 232.82 106.7 232.43 117.87 225.98 118.54 226.37 107.37 232.82"/><polygon class="cls-3" points="237.36 235.47 227.68 229.88 228.46 229.44 238.13 235.02 237.36 235.47"/><polygon class="cls-3" points="174.67 295.02 173.9 294.58 182.51 289.6 183.28 290.05 174.67 295.02"/><polygon class="cls-3" points="186.19 326.15 183.2 324.43 184.21 323.84 187.19 325.57 186.19 326.15"/><polygon class="cls-8" points="162.81 366.75 0 272.75 188 164.21 350.81 258.21 162.81 366.75"/><polygon class="cls-3" points="106.5 233.22 105.72 232.77 118.74 225.25 119.53 225.7 106.5 233.22"/><polygon class="cls-3" points="238.1 235.8 226.81 229.29 227.72 228.77 239 235.28 238.1 235.8"/><polygon class="cls-3" points="174.01 295.31 173.11 294.79 183.16 288.98 184.06 289.5 174.01 295.31"/><polygon class="cls-3" points="186.35 326.17 182.87 324.16 184.05 323.48 187.53 325.49 186.35 326.17"/><polygon class="cls-9" points="162.81 366.58 0 272.58 188 164.04 350.81 258.04 162.81 366.58"/><polygon class="cls-3" points="105.62 233.62 104.73 233.1 119.62 224.51 120.51 225.02 105.62 233.62"/><polygon class="cls-3" points="238.84 236.14 225.94 228.69 226.97 228.1 239.87 235.54 238.84 236.14"/><polygon class="cls-3" points="173.36 295.59 172.33 295 183.82 288.36 184.84 288.96 173.36 295.59"/><polygon class="cls-3" points="186.51 326.2 182.53 323.9 183.88 323.12 187.86 325.42 186.51 326.2"/><polygon class="cls-10" points="162.81 366.42 0 272.42 188 163.87 350.81 257.87 162.81 366.42"/><polygon class="cls-3" points="104.75 234.02 103.74 233.44 120.49 223.77 121.5 224.35 104.75 234.02"/><polygon class="cls-3" points="239.58 236.47 225.07 228.09 226.23 227.43 240.74 235.8 239.58 236.47"/><polygon class="cls-3" points="172.71 295.87 171.55 295.2 184.47 287.74 185.63 288.41 172.71 295.87"/><polygon class="cls-3" points="186.68 326.22 182.2 323.64 183.72 322.76 188.19 325.35 186.68 326.22"/><polygon class="cls-11" points="162.81 366.25 0 272.25 188 163.71 350.81 257.71 162.81 366.25"/><polygon class="cls-3" points="103.87 234.42 102.75 233.78 121.37 223.03 122.48 223.68 103.87 234.42"/><polygon class="cls-3" points="240.32 236.8 224.2 227.5 225.49 226.75 241.61 236.06 240.32 236.8"/><polygon class="cls-3" points="172.05 296.16 170.77 295.41 185.12 287.12 186.41 287.87 172.05 296.16"/><polygon class="cls-3" points="186.84 326.25 181.87 323.37 183.55 322.4 188.53 325.27 186.84 326.25"/><polygon class="cls-12" points="162.81 366.08 0 272.08 188 163.54 350.81 257.54 162.81 366.08"/><polygon class="cls-3" points="103 234.82 101.77 234.12 122.24 222.29 123.47 223 103 234.82"/><polygon class="cls-3" points="241.06 237.14 223.33 226.9 224.75 226.08 242.48 236.32 241.06 237.14"/><polygon class="cls-3" points="171.4 296.44 169.99 295.62 185.78 286.5 187.19 287.32 171.4 296.44"/><polygon class="cls-3" points="187.01 326.27 181.54 323.11 183.39 322.04 188.86 325.2 187.01 326.27"/><polygon class="cls-13" points="162.81 365.91 0 271.91 188 163.37 350.81 257.37 162.81 365.91"/><polygon class="cls-3" points="102.12 235.22 100.78 234.45 123.12 221.56 124.46 222.33 102.12 235.22"/><polygon class="cls-3" points="241.81 237.47 222.46 226.3 224.01 225.41 243.35 236.58 241.81 237.47"/><polygon class="cls-3" points="170.75 296.72 169.2 295.83 186.43 285.88 187.97 286.78 170.75 296.72"/><polygon class="cls-3" points="187.17 326.29 181.2 322.85 183.22 321.68 189.19 325.13 187.17 326.29"/><polygon class="cls-14" points="162.81 365.74 0 271.74 188 163.2 350.81 257.2 162.81 365.74"/><polygon class="cls-3" points="101.25 235.63 99.8 234.79 123.99 220.82 125.44 221.66 101.25 235.63"/><polygon class="cls-3" points="242.55 237.81 221.59 225.71 223.26 224.74 244.22 236.84 242.55 237.81"/><polygon class="cls-3" points="170.09 297 168.42 296.04 187.08 285.26 188.76 286.23 170.09 297"/><polygon class="cls-3" points="187.34 326.32 180.87 322.58 183.06 321.32 189.53 325.05 187.34 326.32"/><polygon class="cls-15" points="162.81 365.57 0 271.57 188 163.03 350.81 257.03 162.81 365.57"/><polygon class="cls-3" points="100.37 236.03 98.81 235.13 124.87 220.08 126.43 220.98 100.37 236.03"/><polygon class="cls-3" points="243.29 238.14 220.72 225.11 222.52 224.07 245.09 237.1 243.29 238.14"/><polygon class="cls-3" points="169.44 297.29 167.64 296.25 187.74 284.64 189.54 285.68 169.44 297.29"/><polygon class="cls-3" points="187.5 326.34 180.54 322.32 182.9 320.96 189.86 324.98 187.5 326.34"/><polygon class="cls-16" points="162.81 365.41 0 271.41 188 162.86 350.81 256.86 162.81 365.41"/><polygon class="cls-3" points="99.5 236.43 97.82 235.46 125.74 219.34 127.42 220.31 99.5 236.43"/><polygon class="cls-3" points="244.03 238.47 219.85 224.51 221.78 223.4 245.96 237.36 244.03 238.47"/><polygon class="cls-3" points="168.78 297.57 166.86 296.46 188.39 284.02 190.32 285.14 168.78 297.57"/><polygon class="cls-3" points="187.67 326.36 180.21 322.06 182.73 320.6 190.19 324.91 187.67 326.36"/><polygon class="cls-17" points="162.81 365.24 0 271.24 188 162.7 350.81 256.7 162.81 365.24"/><polygon class="cls-3" points="98.62 236.83 96.84 235.8 126.62 218.6 128.4 219.63 98.62 236.83"/><polygon class="cls-3" points="244.77 238.81 218.98 223.92 221.04 222.73 246.83 237.62 244.77 238.81"/><polygon class="cls-3" points="168.13 297.86 166.07 296.67 189.04 283.4 191.1 284.59 168.13 297.86"/><polygon class="cls-3" points="187.83 326.39 179.87 321.79 182.57 320.24 190.52 324.83 187.83 326.39"/><polygon class="cls-18" points="162.81 365.07 0 271.07 188 162.53 350.81 256.53 162.81 365.07"/><polygon class="cls-3" points="97.75 237.23 95.85 236.14 127.49 217.87 129.39 218.96 97.75 237.23"/><polygon class="cls-3" points="245.51 239.14 218.11 223.32 220.3 222.06 247.7 237.88 245.51 239.14"/><polygon class="cls-3" points="167.48 298.14 165.29 296.88 189.7 282.79 191.88 284.05 167.48 298.14"/><polygon class="cls-3" points="188 326.41 179.54 321.53 182.4 319.88 190.86 324.76 188 326.41"/><polygon class="cls-19" points="162.81 364.9 0 270.9 188 162.36 350.81 256.36 162.81 364.9"/><polygon class="cls-3" points="96.87 237.63 94.86 236.47 128.37 217.13 130.38 218.29 96.87 237.63"/><polygon class="cls-3" points="246.26 239.48 217.24 222.72 219.56 221.39 248.57 238.14 246.26 239.48"/><polygon class="cls-3" points="166.82 298.42 164.51 297.08 190.35 282.17 192.67 283.5 166.82 298.42"/><polygon class="cls-3" points="188.16 326.44 179.21 321.27 182.24 319.52 191.19 324.69 188.16 326.44"/><polygon class="cls-20" points="162.81 364.73 0 270.73 188 162.19 350.81 256.19 162.81 364.73"/><polygon class="cls-3" points="96 238.03 93.88 236.81 129.24 216.39 131.36 217.61 96 238.03"/><polygon class="cls-3" points="247 239.81 216.37 222.13 218.81 220.72 249.44 238.4 247 239.81"/><polygon class="cls-3" points="166.17 298.7 163.73 297.29 191 281.55 193.45 282.96 166.17 298.7"/><polygon class="cls-3" points="188.32 326.46 178.87 321 182.07 319.16 191.52 324.61 188.32 326.46"/><polygon class="cls-21" points="162.81 364.56 0 270.56 188 162.02 350.81 256.02 162.81 364.56"/><polygon class="cls-3" points="95.12 238.43 92.89 237.15 130.12 215.65 132.35 216.94 95.12 238.43"/><polygon class="cls-3" points="247.74 240.15 215.5 221.53 218.07 220.05 250.31 238.66 247.74 240.15"/><polygon class="cls-3" points="165.52 298.99 162.94 297.5 191.66 280.93 194.23 282.41 165.52 298.99"/><polygon class="cls-3" points="188.49 326.48 178.54 320.74 181.91 318.8 191.85 324.54 188.49 326.48"/><polygon class="cls-22" points="162.81 364.4 0 270.4 188 161.85 350.81 255.85 162.81 364.4"/><polygon class="cls-3" points="94.25 238.84 91.91 237.48 130.99 214.92 133.34 216.27 94.25 238.84"/><polygon class="cls-3" points="248.48 240.48 214.63 220.94 217.33 219.38 251.18 238.92 248.48 240.48"/><polygon class="cls-3" points="164.86 299.27 162.16 297.71 192.31 280.31 195.01 281.87 164.86 299.27"/><polygon class="cls-3" points="188.65 326.51 178.21 320.48 181.74 318.44 192.19 324.47 188.65 326.51"/><polygon class="cls-23" points="162.81 364.23 0 270.23 188 161.69 350.81 255.69 162.81 364.23"/><polygon class="cls-3" points="93.37 239.24 90.92 237.82 131.87 214.18 134.32 215.59 93.37 239.24"/><polygon class="cls-3" points="249.22 240.81 213.76 220.34 216.59 218.7 252.05 239.18 249.22 240.81"/><polygon class="cls-3" points="164.21 299.55 161.38 297.92 192.97 279.69 195.79 281.32 164.21 299.55"/><polygon class="cls-3" points="188.82 326.53 177.88 320.21 181.58 318.08 192.52 324.39 188.82 326.53"/><polygon class="cls-24" points="162.81 364.06 0 270.06 188 161.52 350.81 255.52 162.81 364.06"/><polygon class="cls-3" points="92.5 239.64 89.93 238.16 132.74 213.44 135.31 214.92 92.5 239.64"/><polygon class="cls-3" points="249.96 241.15 212.89 219.74 215.85 218.03 252.93 239.44 249.96 241.15"/><polygon class="cls-3" points="163.56 299.84 160.6 298.13 193.62 279.07 196.58 280.77 163.56 299.84"/><polygon class="cls-3" points="188.98 326.56 177.54 319.95 181.41 317.72 192.85 324.32 188.98 326.56"/><polygon class="cls-25" points="162.81 363.89 0 269.89 188 161.35 350.81 255.35 162.81 363.89"/><polygon class="cls-3" points="91.62 240.04 88.94 238.49 133.62 212.7 136.29 214.25 91.62 240.04"/><polygon class="cls-3" points="250.71 241.48 212.02 219.15 215.11 217.36 253.79 239.7 250.71 241.48"/><polygon class="cls-3" points="162.9 300.12 159.82 298.34 194.27 278.45 197.36 280.23 162.9 300.12"/><polygon class="cls-3" points="189.15 326.58 177.21 319.69 181.25 317.36 193.19 324.25 189.15 326.58"/><polygon class="cls-26" points="162.81 363.72 0 269.72 188 161.18 350.81 255.18 162.81 363.72"/><polygon class="cls-3" points="90.75 240.44 87.96 238.83 134.49 211.96 137.28 213.57 90.75 240.44"/><polygon class="cls-3" points="251.45 241.82 211.15 218.55 214.37 216.69 254.66 239.96 251.45 241.82"/><polygon class="cls-3" points="162.25 300.4 159.03 298.55 194.93 277.83 198.14 279.68 162.25 300.4"/><polygon class="cls-3" points="189.31 326.6 176.88 319.43 181.09 317 193.52 324.17 189.31 326.6"/><polygon class="cls-27" points="162.81 363.56 0 269.56 188 161.01 350.81 255.01 162.81 363.56"/><polygon class="cls-3" points="89.87 240.84 86.97 239.17 135.37 211.23 138.27 212.9 89.87 240.84"/><polygon class="cls-3" points="252.19 242.15 210.28 217.95 213.62 216.02 255.54 240.22 252.19 242.15"/><polygon class="cls-3" points="161.6 300.69 158.25 298.76 195.58 277.21 198.92 279.14 161.6 300.69"/><polygon class="cls-3" points="189.47 326.63 176.54 319.16 180.92 316.63 193.85 324.1 189.47 326.63"/><polygon class="cls-28" points="162.81 363.39 0 269.39 188 160.84 350.81 254.84 162.81 363.39"/><polygon class="cls-3" points="89 241.24 85.99 239.5 136.24 210.49 139.25 212.23 89 241.24"/><polygon class="cls-3" points="252.93 242.49 209.41 217.36 212.88 215.35 256.41 240.48 252.93 242.49"/><polygon class="cls-3" points="160.94 300.97 157.47 298.97 196.23 276.59 199.71 278.59 160.94 300.97"/><polygon class="cls-3" points="189.64 326.65 176.21 318.9 180.76 316.27 194.18 324.03 189.64 326.65"/><polygon class="cls-28" points="162.81 363.22 0 269.22 188 160.68 350.81 254.68 162.81 363.22"/><polygon class="cls-3" points="88.12 241.64 85 239.84 137.12 209.75 140.24 211.55 88.12 241.64"/><polygon class="cls-3" points="253.67 242.82 208.54 216.76 212.14 214.68 257.28 240.74 253.67 242.82"/><polygon class="cls-3" points="160.29 301.25 156.69 299.18 196.89 275.97 200.49 278.05 160.29 301.25"/><polygon class="cls-3" points="189.8 326.67 175.88 318.63 180.59 315.91 194.52 323.95 189.8 326.67"/><polygon class="cls-29" points="162.81 363.05 0 269.05 188 160.51 350.81 254.51 162.81 363.05"/><polygon class="cls-3" points="87.25 242.04 84.01 240.18 137.99 209.01 141.23 210.88 87.25 242.04"/><polygon class="cls-3" points="254.41 243.15 207.67 216.16 211.4 214.01 258.15 241 254.41 243.15"/><polygon class="cls-3" points="159.64 301.54 155.91 299.38 197.54 275.35 201.27 277.5 159.64 301.54"/><polygon class="cls-3" points="189.97 326.7 175.55 318.37 180.43 315.55 194.85 323.88 189.97 326.7"/><polygon class="cls-30" points="162.81 362.88 0 268.88 188 160.34 350.81 254.34 162.81 362.88"/><polygon class="cls-3" points="86.37 242.45 83.03 240.51 138.87 208.28 142.21 210.21 86.37 242.45"/><polygon class="cls-3" points="255.16 243.49 206.8 215.57 210.66 213.34 259.02 241.26 255.16 243.49"/><polygon class="cls-3" points="158.98 301.82 155.12 299.59 198.19 274.73 202.05 276.95 158.98 301.82"/><polygon class="cls-3" points="190.13 326.72 175.21 318.11 180.26 315.19 195.18 323.81 190.13 326.72"/><polygon class="cls-30" points="162.81 362.71 0 268.71 188 160.17 350.81 254.17 162.81 362.71"/><polygon class="cls-3" points="85.5 242.85 82.04 240.85 139.74 207.54 143.2 209.53 85.5 242.85"/><polygon class="cls-3" points="255.9 243.82 205.93 214.97 209.91 212.67 259.89 241.52 255.9 243.82"/><polygon class="cls-3" points="158.33 302.1 154.34 299.8 198.85 274.11 202.83 276.41 158.33 302.1"/><polygon class="cls-3" points="190.3 326.75 174.88 317.85 180.1 314.83 195.51 323.73 190.3 326.75"/><polygon class="cls-31" points="162.81 362.55 0 268.55 188 160 350.81 254 162.81 362.55"/><polygon class="cls-3" points="84.62 243.25 81.05 241.19 140.62 206.8 144.19 208.86 84.62 243.25"/><polygon class="cls-3" points="256.64 244.16 205.06 214.37 209.17 212 260.76 241.78 256.64 244.16"/><polygon class="cls-3" points="157.68 302.39 153.56 300.01 199.5 273.49 203.62 275.86 157.68 302.39"/><polygon class="cls-3" points="190.46 326.77 174.55 317.58 179.93 314.47 195.85 323.66 190.46 326.77"/><polygon class="cls-32" points="162.81 362.38 0 268.38 188 159.84 350.81 253.84 162.81 362.38"/><polygon class="cls-3" points="83.75 243.65 80.07 241.53 141.49 206.06 145.17 208.19 83.75 243.65"/><polygon class="cls-3" points="257.38 244.49 204.18 213.78 208.43 211.32 261.63 242.04 257.38 244.49"/><polygon class="cls-3" points="157.02 302.67 152.78 300.22 200.15 272.87 204.4 275.32 157.02 302.67"/><polygon class="cls-3" points="190.63 326.79 174.22 317.32 179.77 314.11 196.18 323.59 190.63 326.79"/><polygon class="cls-33" points="162.81 362.21 0 268.21 188 159.67 350.81 253.67 162.81 362.21"/><polygon class="cls-3" points="82.87 244.05 79.08 241.86 142.37 205.32 146.16 207.51 82.87 244.05"/><polygon class="cls-3" points="258.12 244.82 203.31 213.18 207.69 210.66 262.5 242.3 258.12 244.82"/><polygon class="cls-3" points="156.37 302.95 152 300.43 200.81 272.25 205.18 274.77 156.37 302.95"/><polygon class="cls-3" points="190.79 326.82 173.88 317.06 179.6 313.75 196.51 323.51 190.79 326.82"/><polygon class="cls-34" points="162.81 362.04 0 268.04 188 159.5 350.81 253.5 162.81 362.04"/><polygon class="cls-3" points="82 244.45 78.09 242.2 143.24 204.59 147.15 206.84 82 244.45"/><polygon class="cls-3" points="258.86 245.16 202.44 212.59 206.95 209.98 263.37 242.56 258.86 245.16"/><polygon class="cls-3" points="155.72 303.24 151.21 300.64 201.46 271.63 205.96 274.23 155.72 303.24"/><polygon class="cls-3" points="190.96 326.84 173.55 316.79 179.44 313.39 196.85 323.44 190.96 326.84"/><polygon class="cls-35" points="162.81 361.87 0 267.87 188 159.33 350.81 253.33 162.81 361.87"/><polygon class="cls-3" points="81.12 244.85 77.11 242.54 144.12 203.85 148.13 206.16 81.12 244.85"/><polygon class="cls-3" points="259.61 245.49 201.57 211.99 206.21 209.31 264.24 242.82 259.61 245.49"/><polygon class="cls-3" points="155.06 303.52 150.43 300.85 202.12 271.01 206.75 273.68 155.06 303.52"/><polygon class="cls-3" points="191.12 326.87 173.22 316.53 179.28 313.03 197.18 323.37 191.12 326.87"/><polygon class="cls-36" points="162.81 361.7 0 267.7 188 159.16 350.81 253.16 162.81 361.7"/><polygon class="cls-3" points="80.25 245.25 76.12 242.87 144.99 203.11 149.12 205.49 80.25 245.25"/><polygon class="cls-3" points="260.35 245.83 200.7 211.39 205.47 208.64 265.11 243.08 260.35 245.83"/><polygon class="cls-3" points="154.41 303.8 149.65 301.06 202.77 270.39 207.53 273.13 154.41 303.8"/><polygon class="cls-3" points="191.28 326.89 172.88 316.26 179.11 312.67 197.51 323.29 191.28 326.89"/><polygon class="cls-36" points="162.81 361.54 0 267.54 188 158.99 350.81 252.99 162.81 361.54"/><polygon class="cls-3" points="79.37 245.66 75.14 243.21 145.87 202.37 150.1 204.82 79.37 245.66"/><polygon class="cls-3" points="261.09 246.16 199.83 210.79 204.72 207.97 265.98 243.34 261.09 246.16"/><polygon class="cls-3" points="153.75 304.09 148.87 301.26 203.42 269.77 208.31 272.59 153.75 304.09"/><polygon class="cls-3" points="191.45 326.91 172.55 316 178.95 312.31 197.84 323.22 191.45 326.91"/><polygon class="cls-37" points="162.81 361.37 0 267.37 188 158.82 350.81 252.82 162.81 361.37"/><polygon class="cls-3" points="78.5 246.06 74.15 243.55 146.74 201.63 151.09 204.15 78.5 246.06"/><polygon class="cls-3" points="261.83 246.5 198.96 210.2 203.98 207.3 266.85 243.6 261.83 246.5"/><polygon class="cls-3" points="153.1 304.37 148.09 301.47 204.07 269.15 209.09 272.04 153.1 304.37"/><polygon class="cls-3" points="191.61 326.94 172.22 315.74 178.78 311.95 198.18 323.15 191.61 326.94"/><polygon class="cls-38" points="162.81 361.2 0 267.2 188 158.66 350.81 252.66 162.81 361.2"/><polygon class="cls-3" points="77.62 246.46 73.16 243.88 147.62 200.9 152.08 203.47 77.62 246.46"/><polygon class="cls-3" points="262.57 246.83 198.09 209.6 203.24 206.63 267.72 243.86 262.57 246.83"/><polygon class="cls-3" points="152.45 304.65 147.3 301.68 204.73 268.53 209.87 271.5 152.45 304.65"/><polygon class="cls-3" points="191.78 326.96 171.88 315.48 178.62 311.59 198.51 323.07 191.78 326.96"/><polygon class="cls-39" points="162.81 361.03 0 267.03 188 158.49 350.81 252.49 162.81 361.03"/><polygon class="cls-3" points="76.75 246.86 72.18 244.22 148.49 200.16 153.06 202.8 76.75 246.86"/><polygon class="cls-3" points="263.31 247.16 197.22 209.01 202.5 205.96 268.59 244.12 263.31 247.16"/><polygon class="cls-3" points="151.79 304.94 146.52 301.89 205.38 267.91 210.66 270.95 151.79 304.94"/><polygon class="cls-3" points="191.94 326.98 171.55 315.21 178.45 311.23 198.84 323 191.94 326.98"/><polygon class="cls-40" points="162.81 360.86 0 266.86 188 158.32 350.81 252.32 162.81 360.86"/><polygon class="cls-3" points="75.87 247.26 71.19 244.56 149.37 199.42 154.05 202.12 75.87 247.26"/><polygon class="cls-3" points="264.06 247.5 196.35 208.41 201.76 205.29 269.46 244.38 264.06 247.5"/><polygon class="cls-3" points="151.14 305.22 145.74 302.1 206.04 267.29 211.44 270.41 151.14 305.22"/><polygon class="cls-3" points="192.11 327.01 171.22 314.95 178.29 310.87 199.18 322.93 192.11 327.01"/><polygon class="cls-41" points="162.81 360.69 0 266.69 188 158.15 350.81 252.15 162.81 360.69"/><polygon class="cls-3" points="75 247.66 70.2 244.89 150.24 198.68 155.04 201.45 75 247.66"/><polygon class="cls-3" points="264.8 247.83 195.48 207.81 201.02 204.62 270.33 244.64 264.8 247.83"/><polygon class="cls-3" points="150.49 305.5 144.96 302.31 206.69 266.67 212.22 269.86 150.49 305.5"/><polygon class="cls-3" points="192.27 327.03 170.89 314.69 178.12 310.51 199.51 322.85 192.27 327.03"/><polygon class="cls-42" points="162.81 360.52 0 266.52 188 157.98 350.81 251.98 162.81 360.52"/><polygon class="cls-3" points="74.12 248.06 69.22 245.23 151.12 197.94 156.02 200.78 74.12 248.06"/><polygon class="cls-3" points="265.54 248.17 194.61 207.22 200.27 203.95 271.2 244.9 265.54 248.17"/><polygon class="cls-3" points="149.83 305.79 144.17 302.52 207.34 266.05 213 269.32 149.83 305.79"/><polygon class="cls-3" points="192.44 327.06 170.55 314.42 177.96 310.15 199.84 322.78 192.44 327.06"/><polygon class="cls-43" points="162.81 360.36 0 266.36 188 157.81 350.81 251.81 162.81 360.36"/><polygon class="cls-3" points="73.25 248.46 68.23 245.57 151.99 197.21 157.01 200.1 73.25 248.46"/><polygon class="cls-3" points="266.28 248.5 193.74 206.62 199.53 203.28 272.07 245.16 266.28 248.5"/><polygon class="cls-3" points="149.18 306.07 143.39 302.73 208 265.43 213.78 268.77 149.18 306.07"/><polygon class="cls-3" points="192.6 327.08 170.22 314.16 177.79 309.79 200.18 322.71 192.6 327.08"/><polygon class="cls-44" points="162.81 360.19 0 266.19 188 157.65 350.81 251.65 162.81 360.19"/><polygon class="cls-3" points="72.37 248.87 67.24 245.91 152.87 196.47 158 199.43 72.37 248.87"/><polygon class="cls-3" points="267.02 248.84 192.87 206.02 198.79 202.6 272.94 245.42 267.02 248.84"/><polygon class="cls-3" points="148.53 306.35 142.61 302.94 208.65 264.81 214.57 268.22 148.53 306.35"/><polygon class="cls-3" points="192.76 327.1 169.89 313.89 177.63 309.43 200.51 322.63 192.76 327.1"/><polygon class="cls-45" points="162.81 360.02 0 266.02 188 157.48 350.81 251.48 162.81 360.02"/><polygon class="cls-3" points="71.5 249.27 66.26 246.24 153.74 195.73 158.98 198.76 71.5 249.27"/><polygon class="cls-3" points="267.76 249.17 192 205.43 198.05 201.93 273.81 245.68 267.76 249.17"/><polygon class="cls-3" points="147.87 306.64 141.83 303.15 209.3 264.19 215.35 267.68 147.87 306.64"/><polygon class="cls-3" points="192.93 327.13 169.56 313.63 177.47 309.06 200.84 322.56 192.93 327.13"/><polygon class="cls-46" points="162.81 359.85 0 265.85 188 157.31 350.81 251.31 162.81 359.85"/><polygon class="cls-3" points="70.62 249.67 65.27 246.58 154.62 194.99 159.97 198.08 70.62 249.67"/><polygon class="cls-3" points="268.5 249.5 191.13 204.83 197.31 201.26 274.68 245.94 268.5 249.5"/><polygon class="cls-3" points="147.22 306.92 141.05 303.36 209.96 263.57 216.13 267.13 147.22 306.92"/><polygon class="cls-3" points="193.09 327.15 169.22 313.37 177.3 308.7 201.17 322.49 193.09 327.15"/><polygon class="cls-47" points="162.81 359.68 0 265.68 188 157.14 350.81 251.14 162.81 359.68"/><polygon class="cls-3" points="69.75 250.07 64.28 246.91 155.49 194.26 160.95 197.41 69.75 250.07"/><polygon class="cls-3" points="269.25 249.84 190.26 204.23 196.57 200.59 275.55 246.2 269.25 249.84"/><polygon class="cls-3" points="146.57 307.2 140.26 303.56 210.61 262.95 216.91 266.59 146.57 307.2"/><polygon class="cls-3" points="193.26 327.18 168.89 313.11 177.14 308.34 201.51 322.41 193.26 327.18"/><polygon class="cls-48" points="162.81 359.51 0 265.51 188 156.97 350.81 250.97 162.81 359.51"/><polygon class="cls-3" points="68.87 250.47 63.3 247.25 156.37 193.52 161.94 196.74 68.87 250.47"/><polygon class="cls-3" points="269.99 250.17 189.39 203.64 195.82 199.92 276.42 246.46 269.99 250.17"/><polygon class="cls-3" points="145.91 307.49 139.48 303.77 211.26 262.33 217.69 266.04 145.91 307.49"/><polygon class="cls-3" points="193.42 327.2 168.56 312.84 176.97 307.98 201.84 322.34 193.42 327.2"/><polygon class="cls-49" points="162.81 359.35 0 265.35 188 156.81 350.81 250.81 162.81 359.35"/><polygon class="cls-3" points="68 250.87 62.31 247.59 157.24 192.78 162.93 196.06 68 250.87"/><polygon class="cls-3" points="270.73 250.51 188.52 203.04 195.08 199.25 277.3 246.72 270.73 250.51"/><polygon class="cls-3" points="145.26 307.77 138.7 303.98 211.92 261.71 218.48 265.5 145.26 307.77"/><polygon class="cls-3" points="193.59 327.22 168.22 312.58 176.81 307.62 202.17 322.27 193.59 327.22"/><polygon class="cls-50" points="162.81 359.18 0 265.18 188 156.64 350.81 250.64 162.81 359.18"/><polygon class="cls-3" points="67.12 251.27 61.33 247.93 158.12 192.04 163.91 195.39 67.12 251.27"/><polygon class="cls-3" points="271.47 250.84 187.65 202.44 194.34 198.58 278.17 246.98 271.47 250.84"/><polygon class="cls-3" points="144.6 308.05 137.92 304.19 212.57 261.09 219.26 264.95 144.6 308.05"/><polygon class="cls-3" points="193.75 327.25 167.89 312.32 176.64 307.26 202.5 322.19 193.75 327.25"/><polygon class="cls-51" points="162.81 359.01 0 265.01 188 156.47 350.81 250.47 162.81 359.01"/><polygon class="cls-3" points="66.25 251.67 60.34 248.26 158.99 191.31 164.9 194.72 66.25 251.67"/><polygon class="cls-3" points="272.21 251.17 186.78 201.85 193.6 197.91 279.04 247.24 272.21 251.17"/><polygon class="cls-3" points="143.95 308.33 137.13 304.4 213.22 260.47 220.04 264.4 143.95 308.33"/><polygon class="cls-3" points="193.92 327.27 167.56 312.05 176.48 306.9 202.84 322.12 193.92 327.27"/><polygon class="cls-52" points="162.81 358.84 0 264.84 188 156.3 350.81 250.3 162.81 358.84"/><polygon class="cls-3" points="65.37 252.07 59.35 248.6 159.87 190.57 165.89 194.04 65.37 252.07"/><polygon class="cls-3" points="272.95 251.51 185.91 201.25 192.86 197.24 279.91 247.5 272.95 251.51"/><polygon class="cls-3" points="143.3 308.62 136.35 304.61 213.88 259.85 220.82 263.86 143.3 308.62"/><polygon class="cls-3" points="194.08 327.29 167.23 311.79 176.31 306.54 203.17 322.05 194.08 327.29"/><polygon class="cls-53" points="162.81 358.67 0 264.67 188 156.13 350.81 250.13 162.81 358.67"/><polygon class="cls-3" points="64.5 252.48 58.37 248.94 160.74 189.83 166.87 193.37 64.5 252.48"/><polygon class="cls-3" points="273.7 251.84 185.04 200.65 192.12 196.57 280.78 247.75 273.7 251.84"/><polygon class="cls-3" points="142.65 308.9 135.57 304.82 214.53 259.23 221.6 263.31 142.65 308.9"/><polygon class="cls-3" points="194.25 327.32 166.89 311.53 176.15 306.18 203.5 321.97 194.25 327.32"/><polygon class="cls-54" points="162.81 358.5 0 264.5 188 155.96 350.81 249.96 162.81 358.5"/><polygon class="cls-3" points="63.62 252.88 57.38 249.27 161.62 189.09 167.86 192.69 63.62 252.88"/><polygon class="cls-3" points="274.44 252.18 184.17 200.06 191.37 195.9 281.65 248.01 274.44 252.18"/><polygon class="cls-3" points="141.99 309.19 134.79 305.03 215.19 258.61 222.39 262.77 141.99 309.19"/><polygon class="cls-3" points="194.41 327.34 166.56 311.26 175.99 305.82 203.84 321.9 194.41 327.34"/><polygon class="cls-55" points="162.81 358.34 0 264.34 188 155.79 350.81 249.79 162.81 358.34"/><polygon class="cls-3" points="62.75 253.28 56.39 249.61 162.49 188.35 168.85 192.02 62.75 253.28"/><polygon class="cls-3" points="275.18 252.51 183.3 199.46 190.63 195.23 282.52 248.28 275.18 252.51"/><polygon class="cls-3" points="141.34 309.47 134.01 305.24 215.84 257.99 223.17 262.22 141.34 309.47"/><polygon class="cls-3" points="194.57 327.37 166.23 311 175.82 305.46 204.17 321.83 194.57 327.37"/><polygon class="cls-56" points="162.81 358.17 0 264.17 188 155.63 350.81 249.63 162.81 358.17"/><polygon class="cls-3" points="61.87 253.68 55.41 249.95 163.37 187.62 169.83 191.35 61.87 253.68"/><polygon class="cls-3" points="275.92 252.84 182.43 198.87 189.89 194.56 283.39 248.53 275.92 252.84"/><polygon class="cls-3" points="140.68 309.75 133.22 305.44 216.49 257.37 223.95 261.68 140.68 309.75"/><polygon class="cls-3" points="194.74 327.39 165.9 310.74 175.66 305.1 204.5 321.75 194.74 327.39"/><polygon class="cls-57" points="162.81 358 0 264 188 155.46 350.81 249.46 162.81 358"/><polygon class="cls-3" points="61 254.08 54.42 250.28 164.24 186.88 170.82 190.68 61 254.08"/><polygon class="cls-3" points="276.66 253.18 181.56 198.27 189.15 193.88 284.26 248.79 276.66 253.18"/><polygon class="cls-3" points="140.03 310.04 132.44 305.65 217.15 256.75 224.73 261.13 140.03 310.04"/><polygon class="cls-3" points="194.9 327.41 165.56 310.47 175.49 304.74 204.83 321.68 194.9 327.41"/><polygon class="cls-58" points="162.81 357.83 0 263.83 188 155.29 350.81 249.29 162.81 357.83"/><polygon class="cls-3" points="60.12 254.48 53.43 250.62 165.12 186.14 171.81 190 60.12 254.48"/><polygon class="cls-3" points="277.4 253.51 180.69 197.67 188.41 193.21 285.13 249.06 277.4 253.51"/><polygon class="cls-3" points="139.38 310.32 131.66 305.86 217.8 256.13 225.52 260.59 139.38 310.32"/><polygon class="cls-3" points="195.07 327.44 165.23 310.21 175.33 304.38 205.17 321.61 195.07 327.44"/><polygon class="cls-59" points="162.81 357.66 0 263.66 188 155.12 350.81 249.12 162.81 357.66"/><polygon class="cls-3" points="59.25 254.88 52.45 250.96 165.99 185.4 172.79 189.33 59.25 254.88"/><polygon class="cls-3" points="278.15 253.85 179.81 197.07 187.67 192.54 286 249.31 278.15 253.85"/><polygon class="cls-3" points="138.72 310.6 130.88 306.07 218.45 255.51 226.3 260.04 138.72 310.6"/><polygon class="cls-3" points="195.23 327.46 164.9 309.95 175.16 304.02 205.5 321.53 195.23 327.46"/><polygon class="cls-60" points="162.81 357.5 0 263.5 188 154.95 350.81 248.95 162.81 357.5"/><polygon class="cls-3" points="58.37 255.28 51.46 251.29 166.87 184.66 173.78 188.66 58.37 255.28"/><polygon class="cls-3" points="278.89 254.18 178.94 196.48 186.92 191.87 286.87 249.57 278.89 254.18"/><polygon class="cls-3" points="138.07 310.88 130.1 306.28 219.11 254.89 227.08 259.49 138.07 310.88"/><polygon class="cls-3" points="195.4 327.49 164.56 309.68 175 303.66 205.83 321.46 195.4 327.49"/><polygon class="cls-61" points="162.81 357.33 0 263.33 188 154.78 350.81 248.78 162.81 357.33"/><polygon class="cls-3" points="57.5 255.69 50.48 251.63 167.74 183.93 174.76 187.98 57.5 255.69"/><polygon class="cls-3" points="279.63 254.52 178.07 195.88 186.18 191.2 287.74 249.83 279.63 254.52"/><polygon class="cls-3" points="137.42 311.17 129.31 306.49 219.76 254.27 227.86 258.95 137.42 311.17"/><polygon class="cls-3" points="195.56 327.51 164.23 309.42 174.83 303.3 206.17 321.39 195.56 327.51"/><polygon class="cls-61" points="162.81 357.16 0 263.16 188 154.62 350.81 248.62 162.81 357.16"/><polygon class="cls-3" points="56.62 256.09 49.49 251.97 168.62 183.19 175.75 187.31 56.62 256.09"/><polygon class="cls-3" points="280.37 254.85 177.2 195.29 185.44 190.53 288.61 250.09 280.37 254.85"/><polygon class="cls-3" points="136.76 311.45 128.53 306.7 220.41 253.65 228.64 258.4 136.76 311.45"/><polygon class="cls-3" points="195.73 327.53 163.9 309.16 174.67 302.94 206.5 321.31 195.73 327.53"/><polygon class="cls-62" points="162.81 356.99 0 262.99 188 154.45 350.81 248.45 162.81 356.99"/><polygon class="cls-3" points="55.75 256.49 48.5 252.31 169.49 182.45 176.74 186.63 55.75 256.49"/><polygon class="cls-3" points="281.11 255.18 176.33 194.69 184.7 189.86 289.48 250.35 281.11 255.18"/><polygon class="cls-3" points="136.11 311.73 127.75 306.91 221.07 253.03 229.43 257.86 136.11 311.73"/><polygon class="cls-3" points="195.89 327.56 163.56 308.89 174.5 302.58 206.83 321.24 195.89 327.56"/><polygon class="cls-63" points="162.81 356.82 0 262.82 188 154.28 350.81 248.28 162.81 356.82"/><polygon class="cls-3" points="54.87 256.89 47.52 252.64 170.37 181.71 177.72 185.96 54.87 256.89"/><polygon class="cls-3" points="281.86 255.52 175.46 194.09 183.96 189.19 290.35 250.61 281.86 255.52"/><polygon class="cls-3" points="135.46 312.02 126.97 307.12 221.72 252.41 230.21 257.31 135.46 312.02"/><polygon class="cls-3" points="196.06 327.58 163.23 308.63 174.34 302.22 207.16 321.17 196.06 327.58"/><polygon class="cls-64" points="162.81 356.65 0 262.65 188 154.11 350.81 248.11 162.81 356.65"/><polygon class="cls-3" points="54 257.29 46.53 252.98 171.24 180.97 178.71 185.29 54 257.29"/><polygon class="cls-3" points="282.6 255.85 174.59 193.5 183.22 188.52 291.22 250.87 282.6 255.85"/><polygon class="cls-3" points="134.8 312.3 126.19 307.32 222.37 251.79 230.99 256.77 134.8 312.3"/><polygon class="cls-3" points="196.22 327.6 162.9 308.37 174.18 301.86 207.5 321.09 196.22 327.6"/><polygon class="cls-65" points="162.81 356.49 0 262.49 188 153.94 350.81 247.94 162.81 356.49"/><polygon class="cls-3" points="53.12 257.69 45.54 253.31 172.12 180.24 179.7 184.61 53.12 257.69"/><polygon class="cls-3" points="283.34 256.19 173.72 192.9 182.47 187.85 292.09 251.13 283.34 256.19"/><polygon class="cls-3" points="134.15 312.58 125.4 307.53 223.03 251.17 231.77 256.22 134.15 312.58"/><polygon class="cls-3" points="196.38 327.63 162.57 308.1 174.01 301.5 207.83 321.02 196.38 327.63"/><polygon class="cls-66" points="162.81 356.32 0 262.32 188 153.78 350.81 247.78 162.81 356.32"/><polygon class="cls-3" points="52.25 258.09 44.56 253.65 172.99 179.5 180.68 183.94 52.25 258.09"/><polygon class="cls-3" points="284.08 256.52 172.85 192.3 181.73 187.18 292.96 251.39 284.08 256.52"/><polygon class="cls-3" points="133.5 312.87 124.62 307.74 223.68 250.55 232.56 255.68 133.5 312.87"/><polygon class="cls-3" points="196.55 327.65 162.23 307.84 173.85 301.13 208.16 320.95 196.55 327.65"/><polygon class="cls-67" points="162.81 356.15 0 262.15 188 153.61 350.81 247.61 162.81 356.15"/><polygon class="cls-3" points="51.37 258.49 43.57 253.99 173.87 178.76 181.67 183.27 51.37 258.49"/><polygon class="cls-3" points="284.82 256.86 171.98 191.71 180.99 186.5 293.83 251.65 284.82 256.86"/><polygon class="cls-3" points="132.84 313.15 123.84 307.95 224.33 249.93 233.34 255.13 132.84 313.15"/><polygon class="cls-3" points="196.71 327.68 161.9 307.58 173.68 300.77 208.5 320.87 196.71 327.68"/><polygon class="cls-67" points="162.81 355.98 0 261.98 188 153.44 350.81 247.44 162.81 355.98"/><polygon class="cls-3" points="50.5 258.89 42.58 254.33 174.74 178.02 182.66 182.59 50.5 258.89"/><polygon class="cls-3" points="285.56 257.19 171.11 191.11 180.25 185.83 294.7 251.91 285.56 257.19"/><polygon class="cls-3" points="132.19 313.43 123.06 308.16 224.99 249.31 234.12 254.58 132.19 313.43"/><polygon class="cls-3" points="196.88 327.7 161.57 307.31 173.52 300.41 208.83 320.8 196.88 327.7"/><polygon class="cls-68" points="162.81 355.81 0 261.81 188 153.27 350.81 247.27 162.81 355.81"/><polygon class="cls-3" points="49.62 259.3 41.6 254.66 175.62 177.29 183.64 181.92 49.62 259.3"/><polygon class="cls-3" points="286.31 257.52 170.24 190.51 179.51 185.16 295.57 252.17 286.31 257.52"/><polygon class="cls-3" points="131.53 313.72 122.28 308.37 225.64 248.69 234.9 254.04 131.53 313.72"/><polygon class="cls-3" points="197.04 327.72 161.24 307.05 173.35 300.05 209.16 320.73 197.04 327.72"/><polygon class="cls-69" points="162.81 355.64 0 261.64 188 153.1 350.81 247.1 162.81 355.64"/><polygon class="cls-3" points="48.75 259.7 40.61 255 176.49 176.55 184.63 181.25 48.75 259.7"/><polygon class="cls-3" points="287.05 257.86 169.37 189.92 178.77 184.49 296.44 252.43 287.05 257.86"/><polygon class="cls-3" points="130.88 314 121.49 308.58 226.29 248.07 235.68 253.49 130.88 314"/><polygon class="cls-3" points="197.21 327.75 160.9 306.79 173.19 299.69 209.49 320.65 197.21 327.75"/><polygon class="cls-69" points="162.81 355.48 0 261.48 188 152.93 350.81 246.93 162.81 355.48"/><polygon class="cls-3" points="47.87 260.1 39.62 255.34 177.37 175.81 185.62 180.57 47.87 260.1"/><polygon class="cls-3" points="287.79 258.19 168.5 189.32 178.02 183.82 297.31 252.69 287.79 258.19"/><polygon class="cls-3" points="130.23 314.28 120.71 308.79 226.95 247.45 236.47 252.95 130.23 314.28"/><polygon class="cls-3" points="197.37 327.77 160.57 306.52 173.03 299.33 209.83 320.58 197.37 327.77"/><polygon class="cls-70" points="162.81 355.31 0 261.31 188 152.76 350.81 246.76 162.81 355.31"/><polygon class="cls-3" points="47 260.5 38.64 255.67 178.24 175.07 186.6 179.9 47 260.5"/><polygon class="cls-3" points="288.53 258.53 167.63 188.72 177.28 183.15 298.18 252.95 288.53 258.53"/><polygon class="cls-3" points="129.57 314.57 119.93 309 227.6 246.83 237.25 252.4 129.57 314.57"/><polygon class="cls-3" points="197.54 327.8 160.24 306.26 172.86 298.97 210.16 320.51 197.54 327.8"/><polygon class="cls-71" points="162.81 355.14 0 261.14 188 152.6 350.81 246.6 162.81 355.14"/><polygon class="cls-3" points="46.12 260.9 37.65 256.01 179.12 174.34 187.59 179.23 46.12 260.9"/><polygon class="cls-3" points="289.27 258.86 166.76 188.13 176.54 182.48 299.05 253.21 289.27 258.86"/><polygon class="cls-3" points="128.92 314.85 119.15 309.21 228.25 246.21 238.03 251.86 128.92 314.85"/><polygon class="cls-3" points="197.7 327.82 159.9 306 172.7 298.61 210.49 320.43 197.7 327.82"/><polygon class="cls-72" points="162.81 354.97 0 260.97 188 152.43 350.81 246.43 162.81 354.97"/><polygon class="cls-3" points="45.25 261.3 36.66 256.35 179.99 173.6 188.57 178.55 45.25 261.3"/><polygon class="cls-3" points="290.01 259.19 165.89 187.53 175.8 181.81 299.92 253.47 290.01 259.19"/><polygon class="cls-3" points="128.27 315.13 118.36 309.42 228.91 245.59 238.81 251.31 128.27 315.13"/><polygon class="cls-3" points="197.87 327.84 159.57 305.73 172.53 298.25 210.82 320.36 197.87 327.84"/><polygon class="cls-73" points="162.81 354.8 0 260.8 188 152.26 350.81 246.26 162.81 354.8"/><polygon class="cls-3" points="44.37 261.7 35.68 256.68 180.87 172.86 189.56 177.88 44.37 261.7"/><polygon class="cls-3" points="290.75 259.53 165.02 186.94 175.06 181.14 300.79 253.73 290.75 259.53"/><polygon class="cls-3" points="127.61 315.42 117.58 309.62 229.56 244.97 239.59 250.76 127.61 315.42"/><polygon class="cls-3" points="198.03 327.87 159.24 305.47 172.37 297.89 211.16 320.29 198.03 327.87"/><polygon class="cls-74" points="162.81 354.63 0 260.63 188 152.09 350.81 246.09 162.81 354.63"/><polygon class="cls-3" points="43.5 262.11 34.69 257.02 181.74 172.12 190.55 177.21 43.5 262.11"/><polygon class="cls-3" points="291.5 259.86 164.15 186.34 174.32 180.47 301.67 253.99 291.5 259.86"/><polygon class="cls-3" points="126.96 315.7 116.8 309.83 230.22 244.35 240.38 250.22 126.96 315.7"/><polygon class="cls-3" points="198.19 327.89 158.91 305.21 172.2 297.53 211.49 320.21 198.19 327.89"/><polygon class="cls-75" points="162.81 354.47 0 260.47 188 151.92 350.81 245.92 162.81 354.47"/><polygon class="cls-3" points="42.62 262.51 33.7 257.36 182.62 171.38 191.53 176.53 42.62 262.51"/><polygon class="cls-3" points="292.24 260.2 163.28 185.74 173.57 179.8 302.54 254.25 292.24 260.2"/><polygon class="cls-3" points="126.31 315.98 116.02 310.04 230.87 243.73 241.16 249.67 126.31 315.98"/><polygon class="cls-3" points="198.36 327.91 158.57 304.94 172.04 297.17 211.82 320.14 198.36 327.91"/><polygon class="cls-76" points="162.81 354.3 0 260.3 188 151.75 350.81 245.75 162.81 354.3"/><polygon class="cls-3" points="41.75 262.91 32.72 257.69 183.49 170.65 192.52 175.86 41.75 262.91"/><polygon class="cls-3" points="292.98 260.53 162.41 185.15 172.83 179.13 303.41 254.51 292.98 260.53"/><polygon class="cls-3" points="125.65 316.27 115.24 310.25 231.52 243.11 241.94 249.13 125.65 316.27"/><polygon class="cls-3" points="198.52 327.94 158.24 304.68 171.87 296.81 212.16 320.07 198.52 327.94"/><polygon class="cls-77" points="162.81 354.13 0 260.13 188 151.59 350.81 245.59 162.81 354.13"/><polygon class="cls-3" points="40.87 263.31 31.73 258.03 184.37 169.91 193.51 175.19 40.87 263.31"/><polygon class="cls-3" points="293.72 260.87 161.54 184.55 172.09 178.46 304.28 254.77 293.72 260.87"/><polygon class="cls-3" points="125 316.55 114.45 310.46 232.18 242.49 242.72 248.58 125 316.55"/><polygon class="cls-3" points="198.69 327.96 157.91 304.42 171.71 296.45 212.49 319.99 198.69 327.96"/><polygon class="cls-78" points="162.81 353.96 0 259.96 188 151.42 350.81 245.42 162.81 353.96"/><polygon class="cls-3" points="40 263.71 30.75 258.37 185.24 169.17 194.49 174.51 40 263.71"/><polygon class="cls-3" points="294.46 261.2 160.67 183.95 171.35 177.78 305.15 255.03 294.46 261.2"/><polygon class="cls-3" points="124.35 316.83 113.67 310.67 232.83 241.87 243.5 248.04 124.35 316.83"/><polygon class="cls-3" points="198.85 327.99 157.57 304.15 171.54 296.09 212.82 319.92 198.85 327.99"/><polygon class="cls-79" points="162.81 353.79 0 259.79 188 151.25 350.81 245.25 162.81 353.79"/><polygon class="cls-3" points="39.12 264.11 29.76 258.7 186.12 168.43 195.48 173.84 39.12 264.11"/><polygon class="cls-3" points="295.2 261.53 159.8 183.36 170.61 177.11 306.02 255.29 295.2 261.53"/><polygon class="cls-3" points="123.69 317.12 112.89 310.88 233.48 241.25 244.29 247.49 123.69 317.12"/><polygon class="cls-3" points="199.02 328.01 157.24 303.89 171.38 295.73 213.16 319.85 199.02 328.01"/><polygon class="cls-80" points="162.81 353.62 0 259.62 188 151.08 350.81 245.08 162.81 353.62"/><polygon class="cls-3" points="38.25 264.51 28.77 259.04 186.99 167.69 196.47 173.16 38.25 264.51"/><polygon class="cls-3" points="295.95 261.87 158.93 182.76 169.87 176.44 306.89 255.55 295.95 261.87"/><polygon class="cls-3" points="123.04 317.4 112.11 311.09 234.14 240.63 245.07 246.94 123.04 317.4"/><polygon class="cls-3" points="199.18 328.03 156.91 303.63 171.22 295.37 213.49 319.77 199.18 328.03"/><polygon class="cls-81" points="162.81 353.46 0 259.46 188 150.91 350.81 244.91 162.81 353.46"/><polygon class="cls-3" points="37.37 264.91 27.79 259.38 187.87 166.96 197.45 172.49 37.37 264.91"/><polygon class="cls-3" points="296.69 262.2 158.06 182.16 169.13 175.77 307.76 255.81 296.69 262.2"/><polygon class="cls-3" points="122.39 317.68 111.33 311.3 234.79 240.01 245.85 246.4 122.39 317.68"/><polygon class="cls-3" points="199.34 328.06 156.58 303.36 171.05 295.01 213.82 319.7 199.34 328.06"/><polygon class="cls-82" points="162.81 353.29 0 259.29 188 150.75 350.81 244.75 162.81 353.29"/><polygon class="cls-3" points="36.5 265.31 26.8 259.71 188.74 166.22 198.44 171.82 36.5 265.31"/><polygon class="cls-3" points="297.43 262.54 157.19 181.57 168.38 175.1 308.63 256.07 297.43 262.54"/><polygon class="cls-3" points="121.73 317.97 110.54 311.5 235.44 239.39 246.63 245.85 121.73 317.97"/><polygon class="cls-3" points="199.51 328.08 156.24 303.1 170.89 294.65 214.15 319.63 199.51 328.08"/><polygon class="cls-83" points="162.81 353.12 0 259.12 188 150.58 350.81 244.58 162.81 353.12"/><polygon class="cls-3" points="35.62 265.71 25.81 260.05 189.62 165.48 199.43 171.14 35.62 265.71"/><polygon class="cls-3" points="298.17 262.87 156.31 180.97 167.64 174.43 309.5 256.33 298.17 262.87"/><polygon class="cls-3" points="121.08 318.25 109.76 311.71 236.1 238.77 247.42 245.31 121.08 318.25"/><polygon class="cls-3" points="199.67 328.1 155.91 302.84 170.72 294.29 214.49 319.55 199.67 328.1"/><polygon class="cls-84" points="162.81 352.95 0 258.95 188 150.41 350.81 244.41 162.81 352.95"/><polygon class="cls-3" points="34.75 266.12 24.83 260.39 190.49 164.74 200.41 170.47 34.75 266.12"/><polygon class="cls-3" points="298.91 263.2 155.44 180.37 166.9 173.76 310.37 256.59 298.91 263.2"/><polygon class="cls-3" points="120.42 318.53 108.98 311.92 236.75 238.15 248.2 244.76 120.42 318.53"/><polygon class="cls-3" points="199.84 328.13 155.58 302.57 170.56 293.93 214.82 319.48 199.84 328.13"/><polygon class="cls-85" points="162.81 352.78 0 258.78 188 150.24 350.81 244.24 162.81 352.78"/><polygon class="cls-3" points="33.87 266.52 23.84 260.73 191.37 164 201.4 169.8 33.87 266.52"/><polygon class="cls-3" points="299.65 263.54 154.57 179.78 166.16 173.09 311.24 256.85 299.65 263.54"/><polygon class="cls-3" points="119.77 318.81 108.2 312.13 237.4 237.53 248.98 244.22 119.77 318.81"/><polygon class="cls-3" points="200 328.15 155.24 302.31 170.39 293.56 215.15 319.41 200 328.15"/><polygon class="cls-86" points="162.81 352.61 0 258.61 188 150.07 350.81 244.07 162.81 352.61"/><polygon class="cls-3" points="33 266.92 22.86 261.06 192.24 163.27 202.38 169.12 33 266.92"/><polygon class="cls-3" points="300.4 263.87 153.7 179.18 165.42 172.42 312.11 257.11 300.4 263.87"/><polygon class="cls-3" points="119.12 319.1 107.41 312.34 238.06 236.91 249.76 243.67 119.12 319.1"/><polygon class="cls-3" points="200.17 328.18 154.91 302.05 170.23 293.2 215.49 319.33 200.17 328.18"/><polygon class="cls-87" points="162.81 352.45 0 258.45 188 149.9 350.81 243.9 162.81 352.45"/><polygon class="cls-3" points="32.12 267.32 21.87 261.4 193.12 162.53 203.37 168.45 32.12 267.32"/><polygon class="cls-3" points="301.14 264.21 152.83 178.58 164.68 171.75 312.98 257.37 301.14 264.21"/><polygon class="cls-3" points="118.47 319.38 106.63 312.55 238.71 236.29 250.54 243.13 118.47 319.38"/><polygon class="cls-3" points="200.33 328.2 154.58 301.78 170.06 292.84 215.82 319.26 200.33 328.2"/><polygon class="cls-88" points="162.81 352.28 0 258.28 188 149.74 350.81 243.74 162.81 352.28"/><polygon class="cls-3" points="31.25 267.72 20.88 261.74 193.99 161.79 204.36 167.78 31.25 267.72"/><polygon class="cls-3" points="301.88 264.54 151.96 177.99 163.93 171.08 313.85 257.63 301.88 264.54"/><polygon class="cls-3" points="117.81 319.67 105.85 312.76 239.37 235.67 251.33 242.58 117.81 319.67"/><polygon class="cls-3" points="200.5 328.22 154.25 301.52 169.9 292.48 216.15 319.19 200.5 328.22"/><polygon class="cls-89" points="162.81 352.11 0 258.11 188 149.57 350.81 243.57 162.81 352.11"/><polygon class="cls-3" points="30.37 268.12 19.89 262.07 194.87 161.05 205.34 167.1 30.37 268.12"/><polygon class="cls-3" points="302.62 264.88 151.09 177.39 163.19 170.41 314.72 257.89 302.62 264.88"/><polygon class="cls-3" points="117.16 319.95 105.07 312.97 240.02 235.05 252.11 242.03 117.16 319.95"/><polygon class="cls-3" points="200.66 328.25 153.91 301.26 169.74 292.12 216.48 319.11 200.66 328.25"/><polygon class="cls-90" points="162.81 351.94 0 257.94 188 149.4 350.81 243.4 162.81 351.94"/><polygon class="cls-3" points="29.5 268.52 18.91 262.41 195.74 160.32 206.33 166.43 29.5 268.52"/><polygon class="cls-3" points="303.36 265.21 150.22 176.79 162.45 169.74 315.59 258.15 303.36 265.21"/><polygon class="cls-3" points="116.5 320.23 104.29 313.18 240.67 234.43 252.89 241.49 116.5 320.23"/><polygon class="cls-3" points="200.83 328.27 153.58 300.99 169.57 291.76 216.82 319.04 200.83 328.27"/><polygon class="cls-91" points="162.81 351.77 0 257.77 188 149.23 350.81 243.23 162.81 351.77"/><polygon class="cls-3" points="28.62 268.93 17.92 262.75 196.62 159.58 207.32 165.76 28.62 268.93"/><polygon class="cls-3" points="304.11 265.54 149.35 176.2 161.71 169.06 316.46 258.41 304.11 265.54"/><polygon class="cls-3" points="115.85 320.51 103.5 313.39 241.32 233.81 253.67 240.94 115.85 320.51"/><polygon class="cls-3" points="200.99 328.3 153.25 300.73 169.41 291.4 217.15 318.97 200.99 328.3"/><polygon class="cls-92" points="162.81 351.6 0 257.6 188 149.06 350.81 243.06 162.81 351.6"/><polygon class="cls-3" points="27.75 269.33 16.94 263.08 197.49 158.84 208.3 165.08 27.75 269.33"/><polygon class="cls-3" points="304.85 265.88 148.48 175.6 160.97 168.39 317.33 258.67 304.85 265.88"/><polygon class="cls-3" points="115.2 320.8 102.72 313.6 241.98 233.19 254.46 240.4 115.2 320.8"/><polygon class="cls-3" points="201.16 328.32 152.91 300.47 169.24 291.04 217.48 318.89 201.16 328.32"/><polygon class="cls-93" points="162.81 351.44 0 257.44 188 148.89 350.81 242.89 162.81 351.44"/><polygon class="cls-3" points="26.87 269.73 15.95 263.42 198.37 158.1 209.29 164.41 26.87 269.73"/><polygon class="cls-3" points="305.59 266.21 147.61 175 160.22 167.72 318.2 258.93 305.59 266.21"/><polygon class="cls-3" points="114.54 321.08 101.94 313.8 242.63 232.57 255.24 239.85 114.54 321.08"/><polygon class="cls-3" points="201.32 328.34 152.58 300.2 169.08 290.68 217.81 318.82 201.32 328.34"/><polygon class="cls-94" points="162.81 351.27 0 257.27 188 148.73 350.81 242.73 162.81 351.27"/><polygon class="cls-3" points="26 270.13 14.96 263.76 199.24 157.37 210.28 163.74 26 270.13"/><polygon class="cls-3" points="306.33 266.55 146.74 174.41 159.48 167.05 319.07 259.19 306.33 266.55"/><polygon class="cls-3" points="113.89 321.36 101.16 314.01 243.29 231.96 256.02 239.31 113.89 321.36"/><polygon class="cls-3" points="201.48 328.37 152.25 299.94 168.91 290.32 218.15 318.75 201.48 328.37"/><polygon class="cls-94" points="162.81 351.1 0 257.1 188 148.56 350.81 242.56 162.81 351.1"/><polygon class="cls-3" points="25.12 270.53 13.98 264.09 200.12 156.63 211.26 163.06 25.12 270.53"/><polygon class="cls-3" points="307.07 266.88 145.87 173.81 158.74 166.38 319.94 259.45 307.07 266.88"/><polygon class="cls-3" points="113.24 321.65 100.38 314.22 243.94 231.34 256.8 238.76 113.24 321.65"/><polygon class="cls-3" points="201.65 328.39 151.92 299.68 168.75 289.96 218.48 318.67 201.65 328.39"/><polygon class="cls-95" points="162.81 350.93 0 256.93 188 148.39 350.81 242.39 162.81 350.93"/><polygon class="cls-3" points="24.25 270.93 12.99 264.43 200.99 155.89 212.25 162.39 24.25 270.93"/><polygon class="cls-3" points="307.81 267.21 145 173.22 158 165.71 320.81 259.71 307.81 267.21"/><polygon class="cls-3" points="112.58 321.93 99.59 314.43 244.59 230.72 257.58 238.22 112.58 321.93"/><polygon class="cls-3" points="201.81 328.41 151.58 299.41 168.58 289.6 218.81 318.6 201.81 328.41"/><path class="cls-96" d="M242.35,68.24a71.27,71.27,0,0,1-3.19,24.07L237,98.12,177.8,260.85a6.81,6.81,0,0,1-12.79,0L105.81,98.2l-2.17-6s0-.07,0-.11A71,71,0,1,1,242.35,68.24Z"/><circle class="cls-97" cx="171.41" cy="71.16" r="21"/></g></g></svg>