<svg xmlns="http://www.w3.org/2000/svg" viewBox="0 0 272.62 39.78"><defs><style>.cls-1{fill:#3bd46e;}.cls-2{fill:none;stroke:#3bd46e;stroke-miterlimit:10;stroke-width:5px;}</style></defs><title>consultaLogo_2</title><g id="Camada_2" data-name="Camada 2"><g id="Camada_1-2" data-name="Camada 1"><path d="M1.47,13.1A10.37,10.37,0,0,1,5.53,8.91a11.68,11.68,0,0,1,6-1.49,11.45,11.45,0,0,1,7.15,2.16,10.49,10.49,0,0,1,3.79,6.05H16.09a4.68,4.68,0,0,0-1.69-2.37,5,5,0,0,0-3-.85,4.82,4.82,0,0,0-4,1.82A8,8,0,0,0,6,19.4a8,8,0,0,0,1.47,5.14,4.85,4.85,0,0,0,4,1.82,4.44,4.44,0,0,0,4.65-3.19h6.33a10.69,10.69,0,0,1-3.81,6,11.26,11.26,0,0,1-7.13,2.22A11.79,11.79,0,0,1,5.53,29.9a10.43,10.43,0,0,1-4.06-4.19A13,13,0,0,1,0,19.4,13,13,0,0,1,1.47,13.1Z"/><path d="M31,29.9a10.66,10.66,0,0,1-4.21-4.21,12.63,12.63,0,0,1-1.53-6.29,12.3,12.3,0,0,1,1.57-6.28,10.88,10.88,0,0,1,4.3-4.21,12.35,12.35,0,0,1,6.07-1.49,12.39,12.39,0,0,1,6.08,1.49,10.79,10.79,0,0,1,4.29,4.21,12.31,12.31,0,0,1,1.58,6.28,12.07,12.07,0,0,1-1.62,6.29,11.09,11.09,0,0,1-4.36,4.21,12.67,12.67,0,0,1-6.13,1.49A12.26,12.26,0,0,1,31,29.9Zm9-4.4a5.6,5.6,0,0,0,2.24-2.33,7.81,7.81,0,0,0,.84-3.77,7,7,0,0,0-1.74-5.09,5.69,5.69,0,0,0-4.25-1.78,5.56,5.56,0,0,0-4.21,1.78,7.11,7.11,0,0,0-1.7,5.09,7.2,7.2,0,0,0,1.66,5.1,5.46,5.46,0,0,0,4.17,1.78A6,6,0,0,0,40,25.5Z"/><path d="M73,10.08a10,10,0,0,1,2.56,7.31V31H69.73V18.19a6,6,0,0,0-1.38-4.26,4.9,4.9,0,0,0-3.77-1.48,5,5,0,0,0-3.84,1.48,6,6,0,0,0-1.4,4.26V31H53.47V7.79h5.87v2.9a8,8,0,0,1,3-2.37,9.29,9.29,0,0,1,4-.86A8.93,8.93,0,0,1,73,10.08Z"/><path d="M85,30.36a9,9,0,0,1-3.59-2.78,7.07,7.07,0,0,1-1.44-3.9h5.91a3.22,3.22,0,0,0,1.32,2.22,4.54,4.54,0,0,0,2.87.88,4.46,4.46,0,0,0,2.62-.67,2.05,2.05,0,0,0,.94-1.72,1.83,1.83,0,0,0-1.15-1.7,21.8,21.8,0,0,0-3.67-1.23,32.08,32.08,0,0,1-4.25-1.3,7.26,7.26,0,0,1-2.85-2.06,5.48,5.48,0,0,1-1.2-3.73,6,6,0,0,1,1.11-3.52,7.47,7.47,0,0,1,3.19-2.51,12,12,0,0,1,4.88-.92,10,10,0,0,1,6.62,2.07A7.67,7.67,0,0,1,99,15.09H93.37a3,3,0,0,0-1.15-2.2,4.27,4.27,0,0,0-2.75-.82,4.32,4.32,0,0,0-2.45.59,1.87,1.87,0,0,0-.86,1.63,1.92,1.92,0,0,0,1.17,1.78A18.12,18.12,0,0,0,91,17.31a30.51,30.51,0,0,1,4.15,1.3A7.34,7.34,0,0,1,98,20.68a5.69,5.69,0,0,1,1.23,3.71A6.14,6.14,0,0,1,98.08,28a7.26,7.26,0,0,1-3.18,2.5,13.32,13.32,0,0,1-10-.13Z"/><path d="M125.93,7.79V31H120V28.08a7.87,7.87,0,0,1-3,2.37,9.23,9.23,0,0,1-4,.85,9.79,9.79,0,0,1-4.82-1.15A8.09,8.09,0,0,1,105,26.76a11.2,11.2,0,0,1-1.2-5.34V7.79h5.87V20.58a6,6,0,0,0,1.38,4.25,5.58,5.58,0,0,0,7.59,0A6,6,0,0,0,120,20.58V7.79Z"/><path d="M137.58,0V31h-5.87V0Z"/><path d="M150.2,12.61V23.85a2.19,2.19,0,0,0,.56,1.69,2.78,2.78,0,0,0,1.91.53h2.72V31H151.7q-7.41,0-7.41-7.21V12.61h-2.77V7.79h2.77V2.05h5.91V7.79h5.19v4.82Z"/><path d="M159.52,13.08a10,10,0,0,1,9.2-5.66,9.42,9.42,0,0,1,4.54,1.05,9.13,9.13,0,0,1,3.13,2.64V7.79h5.9V31h-5.9V27.62a8.74,8.74,0,0,1-3.13,2.7,9.54,9.54,0,0,1-4.59,1.07,9.84,9.84,0,0,1-5.34-1.51,10.5,10.5,0,0,1-3.81-4.25,13.64,13.64,0,0,1-1.41-6.31A13.35,13.35,0,0,1,159.52,13.08Zm16,2.66a6,6,0,0,0-2.26-2.35,6,6,0,0,0-3.06-.82A5.91,5.91,0,0,0,165,15.69a7.22,7.22,0,0,0-.86,3.63A7.46,7.46,0,0,0,165,23a6.19,6.19,0,0,0,2.26,2.41,5.73,5.73,0,0,0,3,.83,6.12,6.12,0,0,0,3.06-.81,6,6,0,0,0,2.26-2.35,7.51,7.51,0,0,0,.84-3.67A7.5,7.5,0,0,0,175.55,15.74Z"/><path class="cls-1" d="M198,13.1A10.44,10.44,0,0,1,202,8.91,11.68,11.68,0,0,1,208,7.42a11.45,11.45,0,0,1,7.15,2.16,10.49,10.49,0,0,1,3.79,6.05h-6.33a4.68,4.68,0,0,0-1.69-2.37,5,5,0,0,0-3-.85,4.83,4.83,0,0,0-4,1.82,8,8,0,0,0-1.47,5.17A8,8,0,0,0,204,24.54a4.86,4.86,0,0,0,4,1.82,4.44,4.44,0,0,0,4.65-3.19h6.33a10.69,10.69,0,0,1-3.81,6A11.26,11.26,0,0,1,208,31.39,11.79,11.79,0,0,1,202,29.9,10.5,10.5,0,0,1,198,25.71a13,13,0,0,1-1.47-6.31A13,13,0,0,1,198,13.1Z"/><path class="cls-1" d="M244.61,21.16h-17a5.74,5.74,0,0,0,1.76,3.94,5.41,5.41,0,0,0,3.81,1.43,4.79,4.79,0,0,0,4.65-2.81h6.33a10.54,10.54,0,0,1-3.85,5.51,11.27,11.27,0,0,1-7,2.16,12.16,12.16,0,0,1-6-1.49,10.42,10.42,0,0,1-4.14-4.21,12.83,12.83,0,0,1-1.49-6.29,13.19,13.19,0,0,1,1.46-6.32,10.27,10.27,0,0,1,4.11-4.2,12.4,12.4,0,0,1,6.08-1.46,12.23,12.23,0,0,1,5.93,1.42,10,10,0,0,1,4.06,4.05,12.15,12.15,0,0,1,1.45,6A14,14,0,0,1,244.61,21.16Zm-5.91-3.94a4.67,4.67,0,0,0-1.63-3.62,5.78,5.78,0,0,0-3.9-1.36,5.35,5.35,0,0,0-3.67,1.32,5.79,5.79,0,0,0-1.82,3.66Z"/><path class="cls-1" d="M260.62,12.1a7,7,0,1,1-7,7,7,7,0,0,1,7-7m0-5a12,12,0,1,0,12,12,12,12,0,0,0-12-12Z"/><line class="cls-2" x1="253.62" y1="27.1" x2="243.62" y2="38.1"/></g></g></svg>